<svg xmlns="http://www.w3.org/2000/svg" viewBox="0 0 200 200">
  <defs>
    <linearGradient id="purpleGradient" x1="0%" y1="100%" x2="0%" y2="0%">
      <stop offset="0%" style="stop-color:#5B4B85"/>
      <stop offset="100%" style="stop-color:#9B8BC3"/>
    </linearGradient>
  </defs>
  
  <!-- Background -->
  <rect width="200" height="200" fill="#12102B" rx="24"/>
  
  <!-- R Letter -->
  <text x="42" y="150" font-family="Georgia, serif" font-size="90" font-weight="400" fill="url(#purpleGradient)">R</text>
  
  <!-- M Letter -->
  <text x="105" y="150" font-family="Georgia, serif" font-size="90" font-weight="400" fill="url(#purpleGradient)">M</text>
  
  <!-- Center flourish/feathers -->
  <g fill="url(#purpleGradient)">
    <!-- Center spike -->
    <path d="M100 30 L103 70 L100 75 L97 70 Z"/>
    <!-- Left outer feather -->
    <path d="M100 55 Q75 45 65 55 Q80 50 95 60 Z"/>
    <!-- Right outer feather -->
    <path d="M100 55 Q125 45 135 55 Q120 50 105 60 Z"/>
    <!-- Left middle feather -->
    <path d="M100 50 Q80 42 72 50 Q85 45 97 55 Z"/>
    <!-- Right middle feather -->
    <path d="M100 50 Q120 42 128 50 Q115 45 103 55 Z"/>
    <!-- Left inner feather -->
    <path d="M100 45 Q88 40 82 47 Q90 43 98 50 Z"/>
    <!-- Right inner feather -->
    <path d="M100 45 Q112 40 118 47 Q110 43 102 50 Z"/>
  </g>
  
  <!-- Sparkles -->
  <g fill="#9B8BC3">
    <!-- Diamond sparkles -->
    <path d="M80 32 L82 38 L80 44 L78 38 Z"/>
    <path d="M120 35 L121.5 39 L120 43 L118.5 39 Z"/>
    <path d="M140 52 L141 55 L140 58 L139 55 Z"/>
    <path d="M60 50 L61 53 L60 56 L59 53 Z"/>
    <!-- Dot sparkles -->
    <circle cx="90" cy="28" r="2"/>
    <circle cx="110" cy="30" r="1.5"/>
    <circle cx="130" cy="45" r="1.5"/>
    <circle cx="70" cy="42" r="1.5"/>
    <circle cx="95" cy="22" r="1"/>
    <circle cx="105" cy="24" r="1"/>
  </g>
</svg>