<svg xmlns="http://www.w3.org/2000/svg" viewBox="0 0 200 200" width="200" height="200">
  <defs>
    <linearGradient id="grad1" x1="0%" y1="0%" x2="100%" y2="100%">
      <stop offset="0%" style="stop-color:#3B82F6;stop-opacity:1" />
      <stop offset="100%" style="stop-color:#8B5CF6;stop-opacity:1" />
    </linearGradient>
    <linearGradient id="grad2" x1="0%" y1="0%" x2="100%" y2="100%">
      <stop offset="0%" style="stop-color:#8B5CF6;stop-opacity:1" />
      <stop offset="100%" style="stop-color:#EC4899;stop-opacity:1" />
    </linearGradient>
  </defs>
  
  <!-- Background circle -->
  <circle cx="100" cy="100" r="90" fill="url(#grad1)" />
  
  <!-- Document shape -->
  <rect x="55" y="40" width="70" height="90" rx="6" fill="white" opacity="0.95"/>
  
  <!-- Document fold -->
  <path d="M105 40 L125 40 L125 60 L105 60 Z" fill="#E5E7EB"/>
  <path d="M105 40 L125 60 L105 60 Z" fill="#D1D5DB"/>
  
  <!-- Text lines on document -->
  <rect x="65" y="55" width="35" height="4" rx="2" fill="#3B82F6" opacity="0.7"/>
  <rect x="65" y="65" width="50" height="3" rx="1.5" fill="#9CA3AF"/>
  <rect x="65" y="73" width="45" height="3" rx="1.5" fill="#9CA3AF"/>
  <rect x="65" y="81" width="50" height="3" rx="1.5" fill="#9CA3AF"/>
  <rect x="65" y="89" width="40" height="3" rx="1.5" fill="#9CA3AF"/>
  <rect x="65" y="97" width="48" height="3" rx="1.5" fill="#9CA3AF"/>
  <rect x="65" y="105" width="35" height="3" rx="1.5" fill="#9CA3AF"/>
  <rect x="65" y="113" width="45" height="3" rx="1.5" fill="#9CA3AF"/>
  
  <!-- Magic wand / pen with sparkle effect -->
  <g transform="translate(95, 95) rotate(45)">
    <!-- Pen body -->
    <rect x="0" y="-5" width="55" height="10" rx="2" fill="url(#grad2)"/>
    <!-- Pen tip -->
    <polygon points="55,-5 55,5 70,0" fill="#FCD34D"/>
  </g>
  
  <!-- Sparkles -->
  <g fill="#FCD34D">
    <circle cx="150" cy="55" r="4"/>
    <circle cx="160" cy="70" r="2.5"/>
    <circle cx="145" cy="75" r="2"/>
    <circle cx="165" cy="58" r="2"/>
  </g>
  
  <!-- Star sparkle -->
  <path d="M155 45 L157 50 L162 50 L158 54 L160 59 L155 56 L150 59 L152 54 L148 50 L153 50 Z" fill="#FCD34D"/>
</svg>